<svg xmlns="http://www.w3.org/2000/svg" version="1.1" xmlns:xlink="http://www.w3.org/1999/xlink" xmlns:svgjs="http://svgjs.dev/svgjs" width="128" height="128" viewBox="0 0 128 128"><g transform="matrix(0.4835680751173709,0,0,0.4835680751173709,33.20833960958734,12.760752631578946)"><svg viewBox="0 0 57 95" data-background-color="#252525" preserveAspectRatio="xMidYMid meet" height="213" width="128" xmlns="http://www.w3.org/2000/svg" xmlns:xlink="http://www.w3.org/1999/xlink"><defs></defs><g id="tight-bounds" transform="matrix(1,0,0,1,-0.1443000000000012,-0.24049999999999727)"><svg viewBox="0 0 57.288599999999995 95.481" height="95.481" width="57.288599999999995"><g><svg viewBox="0 0 57.288599999999995 95.481" height="95.481" width="57.288599999999995"><g><svg viewBox="0 0 57.288599999999995 95.481" height="95.481" width="57.288599999999995"><g><svg viewBox="0 0 57.288599999999995 95.481" height="95.481" width="57.288599999999995"><g><svg viewBox="0 0 57.288599999999995 95.481" height="95.481" width="57.288599999999995"><g><svg viewBox="0 0 57.288599999999995 95.481" height="95.481" width="57.288599999999995"><g><svg xmlns="http://www.w3.org/2000/svg" xmlns:xlink="http://www.w3.org/1999/xlink" version="1.1" x="0" y="0" viewBox="14 2 36 60" style="enable-background:new 0 0 64 64;" xml:space="preserve" height="95.481" width="57.288599999999995" class="icon-icon-0" data-fill-palette-color="accent" id="icon-0"><path d="M45 36h-3v-4H14v25c0 2.8 2.2 5 5 5h18c2.8 0 5-2.2 5-5v-3h3c2.8 0 5-2.2 5-5v-8C50 38.2 47.8 36 45 36zM23.9 54.5l-1.7 1L17.8 48l4.3-7.5 1.7 1L20.2 48 23.9 54.5zM27 55.3L25 54.7l4-14 1.9 0.5L27 55.3zM33.9 55.5l-1.7-1 3.7-6.5-3.7-6.5 1.7-1 4.3 7.5L33.9 55.5zM48 49c0 1.7-1.3 3-3 3h-3V38h3c1.7 0 3 1.3 3 3V49z" fill="#b66449" data-fill-palette-color="accent"></path><g fill="#b66449" data-fill-palette-color="accent"><path d="M38 30h-2v-2c0-1.1-0.9-2-2-2H20c-2.2 0-4-1.8-4-4s1.8-4 4-4h14c1.1 0 2-0.9 2-2s-0.9-2-2-2H20c-2.2 0-4-1.8-4-4s1.8-4 4-4h14c1.1 0 2-0.9 2-2V2h2v2c0 2.2-1.8 4-4 4H20c-1.1 0-2 0.9-2 2s0.9 2 2 2h14c2.2 0 4 1.8 4 4s-1.8 4-4 4H20c-1.1 0-2 0.9-2 2s0.9 2 2 2h14c2.2 0 4 1.8 4 4V30z" fill="#b66449" data-fill-palette-color="accent"></path></g></svg><g></g></g></svg></g></svg></g></svg></g></svg></g></svg></g></svg><rect width="57.288599999999995" height="95.481" fill="none" stroke="none" visibility="hidden"></rect></g></svg></g></svg>