<svg xmlns="http://www.w3.org/2000/svg" version="1.1" xmlns:xlink="http://www.w3.org/1999/xlink" xmlns:svgjs="http://svgjs.dev/svgjs" width="1000" height="159" viewBox="0 0 1000 159"><g transform="matrix(1,0,0,1,-0.6060508164291605,-0.5973953133421901)"><svg viewBox="0 0 396 63" data-background-color="#252525" preserveAspectRatio="xMidYMid meet" height="159" width="1000" xmlns="http://www.w3.org/2000/svg" xmlns:xlink="http://www.w3.org/1999/xlink"><defs></defs><g id="tight-bounds" transform="matrix(1,0,0,1,0.2399961233059571,0.23670380339973462)"><svg viewBox="0 0 395.52 62.52659239320055" height="62.52659239320055" width="395.52"><g><svg viewBox="0 0 489.44108591469364 77.37430036274651" height="62.52659239320055" width="395.52"><g transform="matrix(1,0,0,1,93.92108591469363,6.198674045497597)"><svg viewBox="0 0 395.52 64.97695227175132" height="64.97695227175132" width="395.52"><g><svg viewBox="0 0 395.52 64.97695227175132" height="64.97695227175132" width="395.52"><g><svg viewBox="0 0 395.52 35.04546322359564" height="35.04546322359564" width="395.52"><g transform="matrix(1,0,0,1,0,0)"><svg width="395.52" viewBox="0.10000000149011612 -35.599998474121094 408.5299987792969 36.19999694824219" height="35.04546322359564" data-palette-color="#e2dcc8"><path d="M5.15 0L0.1 0 12-31.65Q12.8-33.7 14.2-34.65 15.6-35.6 17.45-35.6L17.45-35.6Q19.3-35.6 20.73-34.68 22.15-33.75 22.9-31.7L22.9-31.7 34.85 0 29.6 0 26.55-8.45 8.25-8.45 5.15 0ZM16.15-30.05L9.75-12.7 25.1-12.7 18.85-30.05Q18.6-30.7 18.3-31.05 18-31.4 17.45-31.4L17.45-31.4Q16.95-31.4 16.65-31.05 16.35-30.7 16.15-30.05L16.15-30.05ZM61.45 0.6L61.45 0.6Q58.75 0.6 56.6-0.65 54.45-1.9 53.22-4.08 52-6.25 52-9.15L52-9.15 52-26.55Q52-27.9 51.35-29 50.7-30.1 49.6-30.75 48.5-31.4 47.2-31.4L47.2-31.4Q45.9-31.4 44.82-30.75 43.75-30.1 43.12-29 42.5-27.9 42.5-26.55L42.5-26.55 42.5 0 37.7 0 37.7-25.9Q37.7-28.65 38.9-30.85 40.1-33.05 42.25-34.33 44.4-35.6 47.2-35.6L47.2-35.6Q50.05-35.6 52.2-34.33 54.35-33.05 55.55-30.85 56.75-28.65 56.75-25.9L56.75-25.9 56.75-8.5Q56.75-7.1 57.4-6.03 58.05-4.95 59.12-4.3 60.2-3.65 61.45-3.65L61.45-3.65Q62.7-3.65 63.75-4.3 64.8-4.95 65.42-6.03 66.05-7.1 66.05-8.5L66.05-8.5 66.05-25.9Q66.05-28.65 67.27-30.85 68.5-33.05 70.65-34.33 72.8-35.6 75.65-35.6L75.65-35.6Q78.45-35.6 80.6-34.33 82.75-33.05 83.95-30.85 85.15-28.65 85.15-25.9L85.15-25.9 85.15 0 80.35 0 80.35-26.55Q80.35-27.9 79.72-29 79.1-30.1 78.02-30.75 76.95-31.4 75.65-31.4L75.65-31.4Q74.3-31.4 73.22-30.75 72.15-30.1 71.5-29 70.85-27.9 70.85-26.55L70.85-26.55 70.85-9.15Q70.85-6.25 69.62-4.08 68.4-1.9 66.27-0.65 64.15 0.6 61.45 0.6ZM115.9 0.6L115.9 0.6Q113.2 0.6 111.05-0.65 108.9-1.9 107.67-4.08 106.45-6.25 106.45-9.15L106.45-9.15 106.45-26.55Q106.45-27.9 105.8-29 105.15-30.1 104.05-30.75 102.95-31.4 101.65-31.4L101.65-31.4Q100.35-31.4 99.27-30.75 98.2-30.1 97.57-29 96.95-27.9 96.95-26.55L96.95-26.55 96.95 0 92.15 0 92.15-25.9Q92.15-28.65 93.35-30.85 94.55-33.05 96.7-34.33 98.85-35.6 101.65-35.6L101.65-35.6Q104.5-35.6 106.65-34.33 108.8-33.05 110-30.85 111.2-28.65 111.2-25.9L111.2-25.9 111.2-8.5Q111.2-7.1 111.85-6.03 112.5-4.95 113.57-4.3 114.65-3.65 115.9-3.65L115.9-3.65Q117.15-3.65 118.2-4.3 119.25-4.95 119.87-6.03 120.5-7.1 120.5-8.5L120.5-8.5 120.5-25.9Q120.5-28.65 121.72-30.85 122.95-33.05 125.1-34.33 127.25-35.6 130.1-35.6L130.1-35.6Q132.9-35.6 135.05-34.33 137.2-33.05 138.4-30.85 139.6-28.65 139.6-25.9L139.6-25.9 139.6 0 134.8 0 134.8-26.55Q134.8-27.9 134.17-29 133.55-30.1 132.47-30.75 131.4-31.4 130.1-31.4L130.1-31.4Q128.75-31.4 127.67-30.75 126.6-30.1 125.95-29 125.3-27.9 125.3-26.55L125.3-26.55 125.3-9.15Q125.3-6.25 124.07-4.08 122.85-1.9 120.72-0.65 118.6 0.6 115.9 0.6ZM148.24 0L143.19 0 155.09-31.65Q155.89-33.7 157.29-34.65 158.69-35.6 160.54-35.6L160.54-35.6Q162.39-35.6 163.82-34.68 165.24-33.75 165.99-31.7L165.99-31.7 177.94 0 172.69 0 169.64-8.45 151.34-8.45 148.24 0ZM159.24-30.05L152.84-12.7 168.19-12.7 161.94-30.05Q161.69-30.7 161.39-31.05 161.09-31.4 160.54-31.4L160.54-31.4Q160.04-31.4 159.74-31.05 159.44-30.7 159.24-30.05L159.24-30.05ZM185.89 0L181.09 0 181.09-35 196.44-35Q199.74-35 202.44-33.58 205.14-32.15 206.74-29.58 208.34-27 208.34-23.55L208.34-23.55Q208.34-20.05 206.57-17.38 204.79-14.7 201.79-13.4L201.79-13.4 205.54-5.8Q205.94-5 206.42-4.63 206.89-4.25 207.79-4.25L207.79-4.25 210.29-4.25 210.29 0 207.04 0Q205.09 0 203.62-1 202.14-2 201.19-3.7L201.19-3.7 196.99-12.25Q196.49-12.2 195.92-12.18 195.34-12.15 194.74-12.15L194.74-12.15 185.89-12.15 185.89 0ZM185.89-30.75L185.89-16.4 195.79-16.4Q197.94-16.4 199.72-17.25 201.49-18.1 202.52-19.7 203.54-21.3 203.54-23.55L203.54-23.55Q203.54-25.85 202.49-27.45 201.44-29.05 199.69-29.9 197.94-30.75 195.84-30.75L195.84-30.75 185.89-30.75ZM228.09 0L223.04 0 234.94-31.65Q235.74-33.7 237.14-34.65 238.54-35.6 240.39-35.6L240.39-35.6Q242.24-35.6 243.66-34.68 245.09-33.75 245.84-31.7L245.84-31.7 257.79 0 252.54 0 249.49-8.45 231.19-8.45 228.09 0ZM239.09-30.05L232.69-12.7 248.04-12.7 241.79-30.05Q241.54-30.7 241.24-31.05 240.94-31.4 240.39-31.4L240.39-31.4Q239.89-31.4 239.59-31.05 239.29-30.7 239.09-30.05L239.09-30.05ZM265.73 0L260.93 0 260.93-35 265.73-35 265.73-19.95 284.18-19.95 284.18-35 288.98-35 288.98 0 284.18 0 284.18-15.7 265.73-15.7 265.73 0ZM320.03 0.6L320.03 0.6Q317.33 0.6 315.18-0.65 313.03-1.9 311.81-4.08 310.58-6.25 310.58-9.15L310.58-9.15 310.58-26.55Q310.58-27.9 309.93-29 309.28-30.1 308.18-30.75 307.08-31.4 305.78-31.4L305.78-31.4Q304.48-31.4 303.41-30.75 302.33-30.1 301.71-29 301.08-27.9 301.08-26.55L301.08-26.55 301.08 0 296.28 0 296.28-25.9Q296.28-28.65 297.48-30.85 298.68-33.05 300.83-34.33 302.98-35.6 305.78-35.6L305.78-35.6Q308.63-35.6 310.78-34.33 312.93-33.05 314.13-30.85 315.33-28.65 315.33-25.9L315.33-25.9 315.33-8.5Q315.33-7.1 315.98-6.03 316.63-4.95 317.71-4.3 318.78-3.65 320.03-3.65L320.03-3.65Q321.28-3.65 322.33-4.3 323.38-4.95 324.01-6.03 324.63-7.1 324.63-8.5L324.63-8.5 324.63-25.9Q324.63-28.65 325.86-30.85 327.08-33.05 329.23-34.33 331.38-35.6 334.23-35.6L334.23-35.6Q337.03-35.6 339.18-34.33 341.33-33.05 342.53-30.85 343.73-28.65 343.73-25.9L343.73-25.9 343.73 0 338.93 0 338.93-26.55Q338.93-27.9 338.31-29 337.68-30.1 336.61-30.75 335.53-31.4 334.23-31.4L334.23-31.4Q332.88-31.4 331.81-30.75 330.73-30.1 330.08-29 329.43-27.9 329.43-26.55L329.43-26.55 329.43-9.15Q329.43-6.25 328.21-4.08 326.98-1.9 324.86-0.65 322.73 0.6 320.03 0.6ZM373.18 0L359.48 0Q356.58 0 354.35-1.38 352.13-2.75 350.88-5 349.63-7.25 349.63-9.9L349.63-9.9Q349.63-12.3 350.75-14.4 351.88-16.5 354.03-17.7L354.03-17.7Q351.93-19.05 350.83-21.05 349.73-23.05 349.73-25.25L349.73-25.25Q349.73-27.95 351-30.15 352.28-32.35 354.48-33.68 356.68-35 359.33-35L359.33-35 373.18-35 373.18-30.75 359.88-30.75Q358.33-30.75 357.13-30 355.93-29.25 355.23-28.03 354.53-26.8 354.53-25.25L354.53-25.25Q354.53-23.8 355.25-22.6 355.98-21.4 357.23-20.68 358.48-19.95 359.98-19.95L359.98-19.95 371.33-19.95 371.33-15.7 360.33-15.7Q358.48-15.7 357.15-14.88 355.83-14.05 355.1-12.73 354.38-11.4 354.38-9.9L354.38-9.9Q354.38-8.4 355.08-7.1 355.78-5.8 357.08-5.03 358.38-4.25 360.13-4.25L360.13-4.25 373.18-4.25 373.18 0ZM390.38 0L379.18 0 379.18-35 390.38-35Q395.98-35 400.05-32.75 404.13-30.5 406.38-26.55 408.63-22.6 408.63-17.5L408.63-17.5Q408.63-12.4 406.38-8.45 404.13-4.5 400.05-2.25 395.98 0 390.38 0L390.38 0ZM383.98-30.75L383.98-4.25 390.43-4.25Q394.32-4.25 397.35-5.85 400.38-7.45 402.13-10.43 403.88-13.4 403.88-17.5L403.88-17.5Q403.88-21.65 402.13-24.6 400.38-27.55 397.35-29.15 394.32-30.75 390.43-30.75L390.43-30.75 383.98-30.75Z" opacity="1" transform="matrix(1,0,0,1,0,0)" fill="#e2dcc8" class="undefined-text-0" data-fill-palette-color="primary" id="text-0"></path></svg></g></svg></g><g transform="matrix(1,0,0,1,0,43.3188559995692)"><svg viewBox="0 0 395.52 21.658096272182107" height="21.658096272182107" width="395.52"><g transform="matrix(1,0,0,1,0,0)"><svg width="395.52" viewBox="0.75 -37.5 905.7899780273438 49.599998474121094" height="21.658096272182107" data-palette-color="#b66449"><path d="M3.9 0L3.9-20.55 0.75-20.55 1.2-24.7 3.9-24.7 3.9-30.75Q3.9-33.8 5.6-35.65 7.3-37.5 10.55-37.5L10.55-37.5Q12.45-37.5 13.8-36.95L13.8-36.95 13.3-32.7Q12.3-33 11.6-33L11.6-33Q10.35-33 9.65-32.2 8.95-31.4 8.95-29.95L8.95-29.95 8.95-24.7 13.85-24.7 13.85-20.55 8.95-20.55 8.95 0 3.9 0ZM46.74 0L46.74-24.7 51.04-24.7 51.54-21.25Q53.09-23.3 54.44-24.23 55.79-25.15 57.44-25.15L57.44-25.15Q58.14-25.15 58.64-25L58.64-25 58.19-19.6Q57.29-19.8 56.64-19.8L56.64-19.8Q55.24-19.8 53.99-19.07 52.74-18.35 51.79-17.2L51.79-17.2 51.79 0 46.74 0ZM99.88 0.5Q96.58 0.5 94.13-1.23 91.68-2.95 90.38-5.88 89.08-8.8 89.08-12.35L89.08-12.35Q89.08-15.9 90.38-18.82 91.68-21.75 94.1-23.45 96.53-25.15 99.88-25.15L99.88-25.15Q103.23-25.15 105.68-23.45 108.13-21.75 109.43-18.82 110.73-15.9 110.73-12.35L110.73-12.35Q110.73-8.8 109.43-5.88 108.13-2.95 105.68-1.23 103.23 0.5 99.88 0.5L99.88 0.5ZM99.88-3.8Q102.58-3.8 104.05-6.1 105.53-8.4 105.53-12.35L105.53-12.35Q105.53-16.3 104.03-18.57 102.53-20.85 99.88-20.85L99.88-20.85Q97.23-20.85 95.75-18.57 94.28-16.3 94.28-12.35L94.28-12.35Q94.28-8.4 95.75-6.1 97.23-3.8 99.88-3.8L99.88-3.8ZM155.07-25.15Q158.82-25.15 160.84-22.4 162.87-19.65 162.87-15L162.87-15 162.87 0 157.77 0 157.77-14.35Q157.77-17.6 156.79-19.23 155.82-20.85 153.77-20.85L153.77-20.85Q150.82-20.85 149.07-17.95L149.07-17.95 149.07 0 143.97 0 143.97-24.7 148.32-24.7 148.57-22.15Q149.67-23.55 151.34-24.35 153.02-25.15 155.07-25.15L155.07-25.15ZM204.1 0.5Q201.3 0.5 199.83-1.18 198.35-2.85 198.35-5.65L198.35-5.65 198.35-20.55 195.25-20.55 195.7-24.7 198.35-24.7 198.35-30.55 203.45-31.05 203.45-24.7 208.3-24.7 208.3-20.55 203.45-20.55 203.45-7.3Q203.45-5.4 204.2-4.58 204.95-3.75 206.65-3.75L206.65-3.75 208.3-3.75 207.85 0.5 204.1 0.5ZM240.94-13.3L240.94-17.8 254.29-17.8 254.29-13.3 240.94-13.3ZM298.83 0.5Q295.08 0.5 292.46-1.23 289.83-2.95 288.51-5.9 287.18-8.85 287.18-12.45L287.18-12.45Q287.18-16 288.41-18.9 289.63-21.8 292.01-23.48 294.38-25.15 297.68-25.15L297.68-25.15Q301.83-25.15 304.36-22.3 306.88-19.45 306.88-14.5L306.88-14.5Q306.88-13.4 306.63-11.8L306.63-11.8 292.38-11.8Q292.58-7.9 294.48-5.9 296.38-3.9 299.28-3.9L299.28-3.9Q300.93-3.9 302.61-4.33 304.28-4.75 305.63-5.55L305.63-5.55 305.93-1.05Q303.08 0.5 298.83 0.5L298.83 0.5ZM292.53-15.35L301.73-15.35Q301.73-17.8 300.71-19.3 299.68-20.8 297.53-20.8L297.53-20.8Q295.53-20.8 294.23-19.43 292.93-18.05 292.53-15.35L292.53-15.35ZM351.17-25.15Q354.92-25.15 356.95-22.4 358.97-19.65 358.97-15L358.97-15 358.97 0 353.87 0 353.87-14.35Q353.87-17.6 352.9-19.23 351.92-20.85 349.87-20.85L349.87-20.85Q346.92-20.85 345.17-17.95L345.17-17.95 345.17 0 340.07 0 340.07-24.7 344.42-24.7 344.67-22.15Q345.77-23.55 347.45-24.35 349.12-25.15 351.17-25.15L351.17-25.15ZM407.66-37.5L412.76-37.5 412.76 0 408.11 0 407.86-2Q405.46 0.5 401.86 0.5L401.86 0.5Q398.91 0.5 396.63-1.2 394.36-2.9 393.13-5.83 391.91-8.75 391.91-12.3L391.91-12.3Q391.91-15.8 393.11-18.73 394.31-21.65 396.56-23.4 398.81-25.15 401.86-25.15L401.86-25.15Q405.26-25.15 407.66-22.9L407.66-22.9 407.66-37.5ZM402.46-3.8Q405.11-3.8 406.56-5.98 408.01-8.15 408.01-12.3L408.01-12.3Q408.01-16.4 406.56-18.63 405.11-20.85 402.46-20.85L402.46-20.85Q400.06-20.85 398.58-18.45 397.11-16.05 397.11-12.3L397.11-12.3Q397.11-8.65 398.61-6.23 400.11-3.8 402.46-3.8L402.46-3.8ZM501.04-37.5L506.14-37.5 506.14 0 501.49 0 501.24-2Q498.84 0.5 495.24 0.5L495.24 0.5Q492.29 0.5 490.01-1.2 487.74-2.9 486.51-5.83 485.29-8.75 485.29-12.3L485.29-12.3Q485.29-15.8 486.49-18.73 487.69-21.65 489.94-23.4 492.19-25.15 495.24-25.15L495.24-25.15Q498.64-25.15 501.04-22.9L501.04-22.9 501.04-37.5ZM495.84-3.8Q498.49-3.8 499.94-5.98 501.39-8.15 501.39-12.3L501.39-12.3Q501.39-16.4 499.94-18.63 498.49-20.85 495.84-20.85L495.84-20.85Q493.44-20.85 491.96-18.45 490.49-16.05 490.49-12.3L490.49-12.3Q490.49-8.65 491.99-6.23 493.49-3.8 495.84-3.8L495.84-3.8ZM551.17 0.5Q547.42 0.5 544.8-1.23 542.17-2.95 540.85-5.9 539.52-8.85 539.52-12.45L539.52-12.45Q539.52-16 540.75-18.9 541.97-21.8 544.35-23.48 546.72-25.15 550.02-25.15L550.02-25.15Q554.17-25.15 556.7-22.3 559.22-19.45 559.22-14.5L559.22-14.5Q559.22-13.4 558.97-11.8L558.97-11.8 544.72-11.8Q544.92-7.9 546.82-5.9 548.72-3.9 551.62-3.9L551.62-3.9Q553.27-3.9 554.95-4.33 556.62-4.75 557.97-5.55L557.97-5.55 558.27-1.05Q555.42 0.5 551.17 0.5L551.17 0.5ZM544.87-15.35L554.07-15.35Q554.07-17.8 553.05-19.3 552.02-20.8 549.87-20.8L549.87-20.8Q547.87-20.8 546.57-19.43 545.27-18.05 544.87-15.35L544.87-15.35ZM598.16 0L589.86-24.7 595.21-24.7 600.51-6.4 605.76-24.7 611.11-24.7 602.86 0 598.16 0ZM653.35 0.5Q649.6 0.5 646.98-1.23 644.35-2.95 643.03-5.9 641.7-8.85 641.7-12.45L641.7-12.45Q641.7-16 642.93-18.9 644.15-21.8 646.53-23.48 648.9-25.15 652.2-25.15L652.2-25.15Q656.35-25.15 658.88-22.3 661.4-19.45 661.4-14.5L661.4-14.5Q661.4-13.4 661.15-11.8L661.15-11.8 646.9-11.8Q647.1-7.9 649-5.9 650.9-3.9 653.8-3.9L653.8-3.9Q655.45-3.9 657.13-4.33 658.8-4.75 660.15-5.55L660.15-5.55 660.45-1.05Q657.6 0.5 653.35 0.5L653.35 0.5ZM647.05-15.35L656.25-15.35Q656.25-17.8 655.23-19.3 654.2-20.8 652.05-20.8L652.05-20.8Q650.05-20.8 648.75-19.43 647.45-18.05 647.05-15.35L647.05-15.35ZM700.14 0.5Q697.39 0.5 696.02-1.23 694.64-2.95 694.64-5.7L694.64-5.7 694.64-37.5 699.74-37.5 699.74-8.05Q699.74-6.2 699.94-5.33 700.14-4.45 700.72-4.1 701.29-3.75 702.49-3.75L702.49-3.75 701.99 0.5 700.14 0.5ZM744.83 0.5Q741.53 0.5 739.08-1.23 736.63-2.95 735.33-5.88 734.03-8.8 734.03-12.35L734.03-12.35Q734.03-15.9 735.33-18.82 736.63-21.75 739.05-23.45 741.48-25.15 744.83-25.15L744.83-25.15Q748.18-25.15 750.63-23.45 753.08-21.75 754.38-18.82 755.68-15.9 755.68-12.35L755.68-12.35Q755.68-8.8 754.38-5.88 753.08-2.95 750.63-1.23 748.18 0.5 744.83 0.5L744.83 0.5ZM744.83-3.8Q747.53-3.8 749-6.1 750.48-8.4 750.48-12.35L750.48-12.35Q750.48-16.3 748.98-18.57 747.48-20.85 744.83-20.85L744.83-20.85Q742.18-20.85 740.7-18.57 739.23-16.3 739.23-12.35L739.23-12.35Q739.23-8.4 740.7-6.1 742.18-3.8 744.83-3.8L744.83-3.8ZM800.12-25.15Q803.12-25.15 805.32-23.45 807.52-21.75 808.67-18.82 809.82-15.9 809.82-12.35L809.82-12.35Q809.82-8.75 808.69-5.83 807.57-2.9 805.39-1.2 803.22 0.5 800.12 0.5L800.12 0.5Q796.42 0.5 794.07-1.75L794.07-1.75 794.07 12.1 788.97 12.1 788.97-24.7 792.97-24.7 793.52-22.05Q796.12-25.15 800.12-25.15L800.12-25.15ZM799.17-3.8Q801.72-3.8 803.17-6.1 804.62-8.4 804.62-12.35L804.62-12.35Q804.62-16.25 803.17-18.55 801.72-20.85 799.17-20.85L799.17-20.85Q796.72-20.85 795.17-18.6 793.62-16.35 793.62-12.35L793.62-12.35Q793.62-8.3 795.17-6.05 796.72-3.8 799.17-3.8L799.17-3.8ZM853.31 0.5Q849.56 0.5 846.93-1.23 844.31-2.95 842.98-5.9 841.66-8.85 841.66-12.45L841.66-12.45Q841.66-16 842.88-18.9 844.11-21.8 846.48-23.48 848.86-25.15 852.16-25.15L852.16-25.15Q856.31-25.15 858.83-22.3 861.36-19.45 861.36-14.5L861.36-14.5Q861.36-13.4 861.11-11.8L861.11-11.8 846.86-11.8Q847.06-7.9 848.96-5.9 850.86-3.9 853.76-3.9L853.76-3.9Q855.41-3.9 857.08-4.33 858.76-4.75 860.11-5.55L860.11-5.55 860.41-1.05Q857.56 0.5 853.31 0.5L853.31 0.5ZM847.01-15.35L856.21-15.35Q856.21-17.8 855.18-19.3 854.16-20.8 852.01-20.8L852.01-20.8Q850.01-20.8 848.71-19.43 847.41-18.05 847.01-15.35L847.01-15.35ZM894.64 0L894.64-24.7 898.94-24.7 899.44-21.25Q900.99-23.3 902.34-24.23 903.69-25.15 905.34-25.15L905.34-25.15Q906.04-25.15 906.54-25L906.54-25 906.09-19.6Q905.19-19.8 904.54-19.8L904.54-19.8Q903.14-19.8 901.89-19.07 900.64-18.35 899.69-17.2L899.69-17.2 899.69 0 894.64 0Z" opacity="1" transform="matrix(1,0,0,1,0,0)" fill="#b66449" class="undefined-text-1" data-fill-palette-color="secondary" id="text-1"></path></svg></g></svg></g></svg></g></svg></g><g><svg viewBox="0 0 77.37430036274651 77.37430036274651" height="77.37430036274651" width="77.37430036274651"><g><svg></svg></g><g id="icon-0"><svg viewBox="0 0 77.37430036274651 77.37430036274651" height="77.37430036274651" width="77.37430036274651"><g><path d="M0 38.687c0-21.366 17.321-38.687 38.687-38.687 21.366 0 38.687 17.321 38.687 38.687 0 21.366-17.321 38.687-38.687 38.687-21.366 0-38.687-17.321-38.687-38.687zM38.687 74.214c19.621 0 35.527-15.906 35.527-35.527 0-19.621-15.906-35.527-35.527-35.527-19.621 0-35.527 15.906-35.527 35.527 0 19.621 15.906 35.527 35.527 35.527z" data-fill-palette-color="accent" fill="#b66449" stroke="transparent"></path></g><g transform="matrix(1,0,0,1,26.207027974827383,17.8869465037968)"><svg viewBox="0 0 24.960244413091747 41.60040735515291" height="41.60040735515291" width="24.960244413091747"><g><svg xmlns="http://www.w3.org/2000/svg" xmlns:xlink="http://www.w3.org/1999/xlink" version="1.1" x="0" y="0" viewBox="14 2 36 60" style="enable-background:new 0 0 64 64;" xml:space="preserve" height="41.60040735515291" width="24.960244413091747" class="icon-x-0" data-fill-palette-color="accent" id="x-0"><path d="M45 36h-3v-4H14v25c0 2.8 2.2 5 5 5h18c2.8 0 5-2.2 5-5v-3h3c2.8 0 5-2.2 5-5v-8C50 38.2 47.8 36 45 36zM23.9 54.5l-1.7 1L17.8 48l4.3-7.5 1.7 1L20.2 48 23.9 54.5zM27 55.3L25 54.7l4-14 1.9 0.5L27 55.3zM33.9 55.5l-1.7-1 3.7-6.5-3.7-6.5 1.7-1 4.3 7.5L33.9 55.5zM48 49c0 1.7-1.3 3-3 3h-3V38h3c1.7 0 3 1.3 3 3V49z" fill="#b66449" data-fill-palette-color="accent"></path><g fill="#b66449" data-fill-palette-color="accent"><path d="M38 30h-2v-2c0-1.1-0.9-2-2-2H20c-2.2 0-4-1.8-4-4s1.8-4 4-4h14c1.1 0 2-0.9 2-2s-0.9-2-2-2H20c-2.2 0-4-1.8-4-4s1.8-4 4-4h14c1.1 0 2-0.9 2-2V2h2v2c0 2.2-1.8 4-4 4H20c-1.1 0-2 0.9-2 2s0.9 2 2 2h14c2.2 0 4 1.8 4 4s-1.8 4-4 4H20c-1.1 0-2 0.9-2 2s0.9 2 2 2h14c2.2 0 4 1.8 4 4V30z" fill="#b66449" data-fill-palette-color="accent"></path></g></svg></g></svg></g></svg></g></svg></g></svg></g></svg><rect width="395.52" height="62.52659239320055" fill="none" stroke="none" visibility="hidden"></rect></g></svg></g></svg>